<?xml version="1.0" encoding="UTF-8"?>
<svg width="255px" height="115px" viewBox="0 0 255 115" version="1.1" xmlns="http://www.w3.org/2000/svg" xmlns:xlink="http://www.w3.org/1999/xlink">
    <!-- Generator: Sketch 52.2 (67145) - http://www.bohemiancoding.com/sketch -->
    <title>h3ko_logo_left</title>
    <desc>Created with Sketch.</desc>
    <g id="h3ko_logo_left" stroke="none" stroke-width="1" fill="none" fill-rule="evenodd">
        <g id="h3ko-Logo_01" transform="translate(0.000000, 40.000000)">
            <path d="M37.8,16.9 C37.8,13.3 36,10.8 32.5,9.5 C30.6,8.8 27.3,8.4 22.6,8.4 L6.8,8.4 L6.8,3.1 C6.8,1.7 6.1,0.9 4.6,0.9 C3.2,0.9 2.4,1 2.1,1.1 C1.3,1.4 0.9,2 0.9,3.1 L0.9,32.7 C0.9,33.8 1.3,34.4 2.1,34.7 C2.3,34.8 3.2,34.9 4.6,34.9 C6,34.9 6.8,34.2 6.8,32.7 L6.8,13.3 L24,13.3 C26,13.3 27.6,13.4 28.9,13.7 C30.9,14.2 31.9,15.3 31.9,17 L31.9,32.8 C31.9,34.3 32.6,35 34.1,35 C35.5,35 36.4,34.9 36.6,34.8 C37.4,34.5 37.8,33.9 37.8,32.8 L37.8,16.9 Z" id="Path" fill="#393939"></path>
            <path d="M84.4,21.3 C84,19.8 83.2,18.6 81.8,17.5 C83.2,16.5 84.1,15.3 84.4,13.7 C84.6,13 84.7,11.4 84.7,9 C84.7,5.7 83,3.4 79.6,2.1 C77.2,1.3 74.1,0.9 70.2,0.9 C69.9,0.9 69.5,0.9 69,0.9 C68.5,0.9 68,0.9 67.4,0.9 C67.4,0.9 67.3,0.9 67.2,0.9 L67,0.9 L66.6,0.9 L65.8,0.9 L64.7,0.9 C63.2,0.9 62.4,1.7 62.4,3.4 C62.4,5.1 63.2,5.9 64.7,5.9 L70.3,5.9 C71.5,5.9 72.5,5.9 73.3,6 C74.1,6 74.7,6.1 75.2,6.2 C77.4,6.6 78.5,7.5 78.5,8.8 L78.5,12 C78.5,14 75.9,15 70.6,15 L43.5,15 C42.1,15 41.3,15.7 41.3,17.2 C41.3,19.2 42,20.1 43.5,20.1 L70.6,20.1 C75.9,20.1 78.6,21 78.6,22.9 L78.6,26.1 C78.6,28.5 75.9,29.7 70.4,29.7 L43.5,29.7 C42.1,29.7 41.3,30.7 41.3,32.6 C41.3,34.1 42,34.8 43.5,34.8 L70.4,34.8 C74.1,34.8 77.2,34.3 79.8,33.2 C83.1,31.7 84.8,29.3 84.8,25.9 C84.7,23.4 84.6,21.8 84.4,21.3 Z" id="Path" fill="#007F81"></path>
            <path d="M118.5,30.8 L100.1,21.6 L118.1,12.6 C119.1,12.1 119.6,11.4 119.6,10.5 C119.6,9.1 118.8,8.5 117.1,8.5 C115.8,8.5 114.9,8.6 114.4,8.7 L94.6,18.6 L94.6,3.2 C94.6,2.1 94.2,1.5 93.5,1.2 C93.2,1.1 92.3,1 91,1 C89.6,1 88.8,1.7 88.8,3.2 L88.8,32.8 C88.8,34.3 89.5,35 91,35 C92.4,35 93.2,34.9 93.5,34.8 C94.3,34.5 94.7,33.8 94.7,32.8 L94.7,24.7 L114.8,34.8 C115.1,35 116.1,35.1 117.6,35.1 C119.3,35.1 120.1,34.4 120.1,33 C120,32 119.5,31.3 118.5,30.8 Z" id="Path" fill="#393939"></path>
            <path d="M157.8,16.7 C157.8,11 153.5,8.2 144.8,8.2 L135,8.2 C131.5,8.2 128.6,8.8 126.2,10 C123,11.5 121.4,13.8 121.4,16.8 L121.4,26.6 C121.4,29.6 123,31.8 126.2,33.3 C128.8,34.4 131.7,34.9 135,34.9 L144.8,34.9 C148.3,34.9 151.2,34.4 153.3,33.3 C156.3,31.9 157.8,29.7 157.8,26.6 L157.8,16.7 Z M149,29.3 C147.6,29.7 146.2,30 144.6,30 L135.1,30 C133.3,30 131.7,29.8 130.3,29.4 C128.3,28.8 127.2,27.9 127.2,26.6 L127.2,16.8 C127.2,15.5 128.2,14.5 130.2,13.8 C131.6,13.4 133.2,13.1 135,13.1 L144.5,13.1 C149.3,13.1 151.7,14.2 151.7,16.3 L151.7,26.6 C151.8,27.8 150.9,28.7 149,29.3 Z" id="Shape" fill="#393939" fill-rule="nonzero"></path>
        </g>
    </g>
</svg>